<svg version="1.1" viewBox="0.0 0.0 288.0 288.0" fill="none" stroke="none" stroke-linecap="square" stroke-miterlimit="10" xmlns:xlink="http://www.w3.org/1999/xlink" xmlns="http://www.w3.org/2000/svg"><clipPath id="p.0"><path d="m0 0l288.0 0l0 288.0l-288.0 0l0 -288.0z" clip-rule="nonzero"/></clipPath><g clip-path="url(#p.0)"><path fill="#000000" fill-opacity="0.0" d="m0 0l288.0 0l0 288.0l-288.0 0z" fill-rule="evenodd"/><path fill="#ffffff" d="m23.220472 118.39895l0 0c0 -22.613235 18.331648 -40.944878 40.944878 -40.944878l0 0c10.859261 0 21.27375 4.31382 28.952408 11.992477c7.67865 7.67865 11.992477 18.093147 11.992477 28.9524l0 0c0 22.613228 -18.33165 40.944878 -40.944885 40.944878l0 0c-22.613232 0 -40.944878 -18.33165 -40.944878 -40.944878z" fill-rule="evenodd"/><path stroke="#ffffff" stroke-width="1.0" stroke-linejoin="round" stroke-linecap="butt" d="m23.220472 118.39895l0 0c0 -22.613235 18.331648 -40.944878 40.944878 -40.944878l0 0c10.859261 0 21.27375 4.31382 28.952408 11.992477c7.67865 7.67865 11.992477 18.093147 11.992477 28.9524l0 0c0 22.613228 -18.33165 40.944878 -40.944885 40.944878l0 0c-22.613232 0 -40.944878 -18.33165 -40.944878 -40.944878z" fill-rule="evenodd"/><path fill="#ffffff" d="m182.88885 118.39895l0 0c0 -22.613235 18.33165 -40.944878 40.944885 -40.944878l0 0c10.859253 0 21.273743 4.31382 28.952393 11.992477c7.67865 7.67865 11.992493 18.093147 11.992493 28.9524l0 0c0 22.613228 -18.331665 40.944878 -40.944885 40.944878l0 0c-22.613235 0 -40.944885 -18.33165 -40.944885 -40.944878z" fill-rule="evenodd"/><path stroke="#ffffff" stroke-width="1.0" stroke-linejoin="round" stroke-linecap="butt" d="m182.88885 118.39895l0 0c0 -22.613235 18.33165 -40.944878 40.944885 -40.944878l0 0c10.859253 0 21.273743 4.31382 28.952393 11.992477c7.67865 7.67865 11.992493 18.093147 11.992493 28.9524l0 0c0 22.613228 -18.331665 40.944878 -40.944885 40.944878l0 0c-22.613235 0 -40.944885 -18.33165 -40.944885 -40.944878z" fill-rule="evenodd"/><path fill="#000000" fill-opacity="0.0" d="m172.94638 181.58636l0 0c-7.680832 7.680847 -18.098282 11.995895 -28.960632 11.995895c-10.862335 0 -21.279785 -4.315048 -28.960625 -11.995895l28.960625 -28.960617z" fill-rule="evenodd"/><path fill="#000000" fill-opacity="0.0" d="m172.94638 181.58636l0 0c-7.680832 7.680847 -18.098282 11.995895 -28.960632 11.995895c-10.862335 0 -21.279785 -4.315048 -28.960625 -11.995895" fill-rule="evenodd"/><path stroke="#ffffff" stroke-width="24.0" stroke-linejoin="round" stroke-linecap="butt" d="m172.94638 181.58636l0 0c-7.680832 7.680847 -18.098282 11.995895 -28.960632 11.995895c-10.862335 0 -21.279785 -4.315048 -28.960625 -11.995895" fill-rule="evenodd"/></g></svg>